<?xml version="1.0" standalone="no"?>
<!DOCTYPE svg PUBLIC "-//W3C//DTD SVG 20010904//EN"
 "http://www.w3.org/TR/2001/REC-SVG-20010904/DTD/svg10.dtd">
<svg version="1.0" xmlns="http://www.w3.org/2000/svg"
 width="1989.787740pt" height="881.299930pt" viewBox="0 0 1989.787740 881.299930"
 preserveAspectRatio="xMidYMid meet">
<metadata>
Created by potrace 1.12, written by Peter Selinger 2001-2015
</metadata>
<g transform="translate(-2.436989,942.866708) scale(0.100000,-0.100000)"
fill="#000000" stroke="none">
<path d="M2701 9169 c-806 -143 -1465 -260 -1466 -262 -1 -1 -232 -635 -514
-1409 l-512 -1407 573 -683 c316 -376 690 -821 832 -991 141 -169 261 -307
264 -307 4 0 236 630 516 1401 280 770 513 1402 517 1405 5 2 662 119 1461
260 799 140 1461 258 1470 262 13 6 -157 214 -815 999 -458 546 -839 992 -847
992 -8 -1 -674 -117 -1479 -260z"/>
<path d="M3475 4539 c-281 -770 -512 -1405 -515 -1409 -3 -5 -660 -124 -1460
-265 -800 -140 -1463 -259 -1474 -263 -15 -7 51 -90 435 -547 249 -297 617
-736 817 -975 201 -239 372 -443 381 -453 16 -17 86 -5 1491 242 810 143 1476
264 1480 268 4 4 235 637 515 1407 439 1209 507 1401 496 1418 -11 18 -1602
1920 -1640 1960 -15 17 -52 -82 -526 -1383z"/>
<path d="M13546 5289 c-3 -8 -61 -214 -130 -459 -69 -245 -243 -861 -386
-1370 -144 -509 -378 -1341 -522 -1849 -143 -509 -262 -931 -265 -938 -4 -10
50 -13 279 -13 l285 0 98 375 98 375 548 0 549 0 5 -22 c3 -13 48 -180 99
-373 l92 -350 282 -3 c155 -1 282 2 282 6 0 5 -43 162 -96 348 -86 305 -325
1151 -989 3509 -119 424 -219 772 -221 774 -2 2 -6 -2 -8 -10z m57 -1927 c38
-180 342 -1382 364 -1438 4 -12 -62 -14 -411 -14 -333 0 -416 3 -416 13 0 7
69 276 153 597 84 322 176 694 203 828 27 133 51 242 54 242 3 0 27 -102 53
-228z"/>
<path d="M18606 5289 c-3 -8 -30 -102 -60 -209 -30 -107 -141 -501 -246 -875
-106 -374 -225 -797 -265 -940 -41 -143 -198 -701 -350 -1240 -152 -539 -299
-1061 -327 -1159 -27 -99 -52 -186 -55 -193 -4 -11 49 -13 279 -13 l285 0 77
298 c43 163 87 332 99 375 l20 77 548 0 549 0 5 -22 c4 -13 48 -180 99 -373
l92 -350 283 -3 283 -2 -7 27 c-3 16 -150 539 -326 1163 -176 624 -467 1655
-646 2290 -179 635 -327 1157 -329 1159 -2 2 -6 -2 -8 -10z m57 -1927 c44
-204 96 -413 302 -1209 l63 -243 -414 0 c-341 0 -414 2 -414 14 0 7 69 276
153 597 85 321 176 693 203 827 27 133 51 242 54 242 3 0 27 -102 53 -228z"/>
<path d="M10952 5219 c-259 -19 -473 -117 -638 -292 -177 -188 -264 -440 -251
-732 10 -209 60 -391 167 -605 113 -225 180 -322 532 -767 278 -350 361 -464
450 -612 126 -213 178 -372 178 -551 0 -225 -87 -382 -261 -469 -96 -48 -191
-64 -338 -59 -155 6 -251 35 -447 137 l-131 68 -121 -231 -121 -231 27 -23
c40 -35 234 -127 339 -162 186 -61 268 -74 493 -74 191 -1 212 1 314 27 354
89 606 308 726 630 53 142 65 221 64 432 0 191 -2 205 -31 317 -37 140 -96
281 -168 404 -73 124 -187 281 -551 760 -400 526 -483 654 -544 834 -28 82
-38 243 -20 332 70 362 484 483 897 264 37 -20 68 -35 69 -33 1 1 52 99 113
218 l112 217 -63 35 c-155 86 -381 152 -553 163 -49 3 -101 6 -115 8 -14 1
-71 -1 -128 -5z"/>
<path d="M15425 5168 c-3 -7 -4 -1023 -3 -2258 l3 -2245 263 -3 262 -2 0 805
0 805 435 0 435 0 0 250 0 250 -435 0 -435 0 2 953 3 952 503 3 502 2 0 244 0
243 -267 6 c-148 3 -492 6 -766 7 -393 0 -499 -2 -502 -12z"/>
</g>
</svg>
