<?xml version="1.0" standalone="no"?>
<!DOCTYPE svg PUBLIC "-//W3C//DTD SVG 20010904//EN"
 "http://www.w3.org/TR/2001/REC-SVG-20010904/DTD/svg10.dtd">
<svg version="1.0" xmlns="http://www.w3.org/2000/svg"
 width="1050.561096pt" height="1582.902408pt" viewBox="0 0 1050.561096 1582.902408"
 preserveAspectRatio="xMidYMid meet">
<metadata>
Created by potrace 1.12, written by Peter Selinger 2001-2015
</metadata>
<g transform="translate(-1.438904,1582.902408) scale(0.100000,-0.100000)"
fill="#000000" stroke="none">
<path d="M6565 15665 c-506 -90 -1689 -299 -2630 -465 -940 -166 -1713 -304
-1717 -308 -4 -4 -416 -1132 -917 -2507 -500 -1375 -914 -2512 -919 -2526 -9
-24 7 -46 241 -325 2164 -2581 2704 -3223 2726 -3247 l27 -27 918 2522 c505
1388 921 2527 925 2531 6 6 2763 495 5114 908 103 18 187 35 187 38 0 4 -466
562 -1036 1241 -570 679 -1243 1481 -1496 1783 -360 429 -464 547 -481 546
-12 -1 -436 -74 -942 -164z"/>
<path d="M6235 7034 c-506 -1389 -924 -2528 -929 -2531 -9 -6 -1607 -289
-4309 -764 -706 -125 -986 -177 -983 -186 3 -7 227 -277 498 -600 272 -323
813 -968 1203 -1433 390 -465 836 -997 992 -1183 l284 -337 48 0 c56 0 5261
916 5272 927 6 6 1829 5007 1841 5049 2 8 -2987 3584 -2996 3584 -1 0 -416
-1137 -921 -2526z"/>
</g>
</svg>
